<mxfile host="app.diagrams.net" modified="2021-03-26T05:50:00.977Z" agent="5.0 (Windows NT 10.0; Win64; x64) AppleWebKit/537.36 (KHTML, like Gecko) Chrome/89.0.4389.90 Safari/537.36" etag="3nX6-4H_X1ZSmeBK0u4w" version="14.2.7" type="github">
  <diagram id="59syXu5BNrSL8kvoRbfm" name="Page-1">
    <mxGraphModel dx="1026" dy="1792" grid="1" gridSize="10" guides="1" tooltips="1" connect="1" arrows="1" fold="1" page="1" pageScale="1" pageWidth="827" pageHeight="1169" math="0" shadow="0">
      <root>
        <mxCell id="0" />
        <mxCell id="1" parent="0" />
        <mxCell id="pylfqhfmdpnWDH9blYoa-16" value="" style="shape=ext;double=1;rounded=1;whiteSpace=wrap;html=1;" vertex="1" parent="1">
          <mxGeometry x="295" y="-180" width="195" height="90" as="geometry" />
        </mxCell>
        <mxCell id="pylfqhfmdpnWDH9blYoa-14" value="" style="shape=ext;double=1;rounded=1;whiteSpace=wrap;html=1;" vertex="1" parent="1">
          <mxGeometry x="280" y="-570" width="496" height="100" as="geometry" />
        </mxCell>
        <mxCell id="pylfqhfmdpnWDH9blYoa-13" value="" style="shape=ext;double=1;rounded=1;whiteSpace=wrap;html=1;" vertex="1" parent="1">
          <mxGeometry x="47" y="-400" width="1190" height="160" as="geometry" />
        </mxCell>
        <mxCell id="pylfqhfmdpnWDH9blYoa-1" value="MySQL" style="rounded=1;whiteSpace=wrap;html=1;strokeWidth=2;fillWeight=4;hachureGap=8;hachureAngle=45;sketch=1;fillColor=#e1d5e7;strokeColor=#9673a6;" vertex="1" parent="1">
          <mxGeometry x="330" y="-160" width="120" height="60" as="geometry" />
        </mxCell>
        <mxCell id="pylfqhfmdpnWDH9blYoa-5" value="newsworker" style="rounded=1;whiteSpace=wrap;html=1;strokeWidth=2;fillWeight=4;hachureGap=8;hachureAngle=45;sketch=1;fillColor=#dae8fc;strokeColor=#6c8ebf;" vertex="1" parent="1">
          <mxGeometry x="121" y="-350" width="120" height="60" as="geometry" />
        </mxCell>
        <mxCell id="pylfqhfmdpnWDH9blYoa-6" value="basicworker" style="rounded=1;whiteSpace=wrap;html=1;strokeWidth=2;fillWeight=4;hachureGap=8;hachureAngle=45;sketch=1;fillColor=#dae8fc;strokeColor=#6c8ebf;" vertex="1" parent="1">
          <mxGeometry x="301" y="-350" width="120" height="60" as="geometry" />
        </mxCell>
        <mxCell id="pylfqhfmdpnWDH9blYoa-7" value="draftworker" style="rounded=1;whiteSpace=wrap;html=1;strokeWidth=2;fillWeight=4;hachureGap=8;hachureAngle=45;sketch=1;fillColor=#dae8fc;strokeColor=#6c8ebf;" vertex="1" parent="1">
          <mxGeometry x="481" y="-350" width="120" height="60" as="geometry" />
        </mxCell>
        <mxCell id="pylfqhfmdpnWDH9blYoa-8" value="dataService" style="rounded=1;whiteSpace=wrap;html=1;strokeWidth=2;fillWeight=4;hachureGap=8;hachureAngle=45;sketch=1;fillColor=#dae8fc;strokeColor=#6c8ebf;" vertex="1" parent="1">
          <mxGeometry x="651" y="-350" width="120" height="60" as="geometry" />
        </mxCell>
        <mxCell id="pylfqhfmdpnWDH9blYoa-9" value="logWorker" style="rounded=1;whiteSpace=wrap;html=1;strokeWidth=2;fillWeight=4;hachureGap=8;hachureAngle=45;sketch=1;fillColor=#dae8fc;strokeColor=#6c8ebf;" vertex="1" parent="1">
          <mxGeometry x="821" y="-350" width="120" height="60" as="geometry" />
        </mxCell>
        <mxCell id="pylfqhfmdpnWDH9blYoa-10" value="coverContent" style="rounded=1;whiteSpace=wrap;html=1;strokeWidth=2;fillWeight=4;hachureGap=8;hachureAngle=45;sketch=1;fillColor=#ffe6cc;strokeColor=#d79b00;" vertex="1" parent="1">
          <mxGeometry x="380" y="-550" width="120" height="60" as="geometry" />
        </mxCell>
        <mxCell id="pylfqhfmdpnWDH9blYoa-11" value="coverBasic" style="rounded=1;whiteSpace=wrap;html=1;strokeWidth=2;fillWeight=4;hachureGap=8;hachureAngle=45;sketch=1;fillColor=#ffe6cc;strokeColor=#d79b00;" vertex="1" parent="1">
          <mxGeometry x="560" y="-550" width="120" height="60" as="geometry" />
        </mxCell>
        <mxCell id="pylfqhfmdpnWDH9blYoa-12" value="&lt;pre style=&quot;background-color: #f2f3f7 ; color: #262626 ; font-family: &amp;#34;jetbrains mono&amp;#34; , monospace ; font-size: 10.5pt&quot;&gt;ClueServiceProvider&lt;/pre&gt;" style="rounded=1;whiteSpace=wrap;html=1;strokeWidth=2;fillWeight=4;hachureGap=8;hachureAngle=45;sketch=1;fillColor=#dae8fc;strokeColor=#6c8ebf;" vertex="1" parent="1">
          <mxGeometry x="1001" y="-350" width="180" height="60" as="geometry" />
        </mxCell>
      </root>
    </mxGraphModel>
  </diagram>
</mxfile>
